HIERARCHY
ROOT Hips
{
    OFFSET   0.000000   0.000000   0.000000
    CHANNELS 6 Xposition Yposition Zposition Zrotation Xrotation Yrotation
    JOINT Chest
    {
        OFFSET   0.000000   8.007230   0.000000
        CHANNELS 3 Zrotation Xrotation Yrotation
        JOINT Chest2
        {
            OFFSET   0.000000  22.077100   0.000000
            CHANNELS 3 Zrotation Xrotation Yrotation
            JOINT Neck
            {
                OFFSET   0.000000  23.254800   0.000000
                CHANNELS 3 Zrotation Xrotation Yrotation
                JOINT Head
                {
                    OFFSET   0.000010  14.370000   1.956600
                    CHANNELS 3 Zrotation Xrotation Yrotation
                    End Site
                    {
                        OFFSET   0.000000  19.566000   0.000000
                    }
                }
            }
            JOINT LeftCollar
            {
                OFFSET   3.911900  19.017000  -0.467062
                CHANNELS 3 Zrotation Xrotation Yrotation
                JOINT LeftShoulder
                {
                    OFFSET  10.383700   0.000000   0.000000
                    CHANNELS 3 Zrotation Xrotation Yrotation
                    JOINT LeftElbow
                    {
                        OFFSET  26.662100   0.001193   0.000835
                        CHANNELS 3 Zrotation Xrotation Yrotation
                        JOINT LeftWrist
                        {
                            OFFSET  28.869000  -0.000058  -0.000075
                            CHANNELS 3 Zrotation Xrotation Yrotation
                            JOINT LeftFinger0
                            {
                                OFFSET   2.044660  -2.323460   3.252850
                                CHANNELS 3 Zrotation Xrotation Yrotation
                                JOINT LeftFinger01
                                {
                                    OFFSET   3.088130   0.000000   0.000000
                                    CHANNELS 3 Zrotation Xrotation Yrotation
                                    JOINT LeftFinger02
                                    {
                                        OFFSET   2.639450   0.000000   0.000000
                                        CHANNELS 3 Zrotation Xrotation Yrotation
                                        End Site
                                        {
                                            OFFSET   2.582190   0.000000   0.000000
                                        }
                                    }
                                }
                            }
                            JOINT LeftFinger1
                            {
                                OFFSET   8.364480   0.000000   3.252850
                                CHANNELS 3 Zrotation Xrotation Yrotation
                                JOINT LeftFinger11
                                {
                                    OFFSET   4.646920   0.000000   0.000000
                                    CHANNELS 3 Zrotation Xrotation Yrotation
                                    JOINT LeftFinger12
                                    {
                                        OFFSET   2.323460   0.000000   0.000000
                                        CHANNELS 3 Zrotation Xrotation Yrotation
                                        End Site
                                        {
                                            OFFSET   2.273050   0.000000   0.000000
                                        }
                                    }
                                }
                            }
                            JOINT LeftFinger2
                            {
                                OFFSET   8.364490   0.000016   1.078090
                                CHANNELS 3 Zrotation Xrotation Yrotation
                                JOINT LeftFinger21
                                {
                                    OFFSET   5.111620   0.000000   0.000000
                                    CHANNELS 3 Zrotation Xrotation Yrotation
                                    JOINT LeftFinger22
                                    {
                                        OFFSET   2.788150   0.000012   0.000000
                                        CHANNELS 3 Zrotation Xrotation Yrotation
                                        End Site
                                        {
                                            OFFSET   2.727660   0.000000   0.000000
                                        }
                                    }
                                }
                            }
                            JOINT LeftFinger3
                            {
                                OFFSET   7.899780   0.000014  -1.078090
                                CHANNELS 3 Zrotation Xrotation Yrotation
                                JOINT LeftFinger31
                                {
                                    OFFSET   4.646930   0.000000   0.000000
                                    CHANNELS 3 Zrotation Xrotation Yrotation
                                    JOINT LeftFinger32
                                    {
                                        OFFSET   2.323470   0.000000   0.000000
                                        CHANNELS 3 Zrotation Xrotation Yrotation
                                        End Site
                                        {
                                            OFFSET   2.273050   0.000000   0.000000
                                        }
                                    }
                                }
                            }
                            JOINT LeftFinger4
                            {
                                OFFSET   7.435090   0.000000  -3.252850
                                CHANNELS 3 Zrotation Xrotation Yrotation
                                JOINT LeftFinger41
                                {
                                    OFFSET   3.717550   0.000000   0.000000
                                    CHANNELS 3 Zrotation Xrotation Yrotation
                                    JOINT LeftFinger42
                                    {
                                        OFFSET   1.858770   0.000000   0.000000
                                        CHANNELS 3 Zrotation Xrotation Yrotation
                                        End Site
                                        {
                                            OFFSET   1.818440   0.000000   0.000000
                                        }
                                    }
                                }
                            }
                        }
                    }
                }
            }
            JOINT RightCollar
            {
                OFFSET  -3.911900  19.017000  -0.467063
                CHANNELS 3 Zrotation Xrotation Yrotation
                JOINT RightShoulder
                {
                    OFFSET -10.383700   0.000023   0.000000
                    CHANNELS 3 Zrotation Xrotation Yrotation
                    JOINT RightElbow
                    {
                        OFFSET -26.662100   0.001246   0.001011
                        CHANNELS 3 Zrotation Xrotation Yrotation
                        JOINT RightWrist
                        {
                            OFFSET -28.869000  -0.000026  -0.000078
                            CHANNELS 3 Zrotation Xrotation Yrotation
                            JOINT RightFinger0
                            {
                                OFFSET  -2.044660  -2.323490   3.252850
                                CHANNELS 3 Zrotation Xrotation Yrotation
                                JOINT RightFinger01
                                {
                                    OFFSET  -3.088130   0.000000   0.000000
                                    CHANNELS 3 Zrotation Xrotation Yrotation
                                    JOINT RightFinger02
                                    {
                                        OFFSET  -2.639460   0.000000   0.000000
                                        CHANNELS 3 Zrotation Xrotation Yrotation
                                        End Site
                                        {
                                            OFFSET  -2.582190   0.000000   0.000000
                                        }
                                    }
                                }
                            }
                            JOINT RightFinger1
                            {
                                OFFSET  -8.364480   0.000000   3.252850
                                CHANNELS 3 Zrotation Xrotation Yrotation
                                JOINT RightFinger11
                                {
                                    OFFSET  -4.646920   0.000000   0.000000
                                    CHANNELS 3 Zrotation Xrotation Yrotation
                                    JOINT RightFinger12
                                    {
                                        OFFSET  -2.323470   0.000000   0.000000
                                        CHANNELS 3 Zrotation Xrotation Yrotation
                                        End Site
                                        {
                                            OFFSET  -2.273050   0.000000   0.000000
                                        }
                                    }
                                }
                            }
                            JOINT RightFinger2
                            {
                                OFFSET  -8.364480   0.000000   1.078090
                                CHANNELS 3 Zrotation Xrotation Yrotation
                                JOINT RightFinger21
                                {
                                    OFFSET  -5.111620   0.000000   0.000000
                                    CHANNELS 3 Zrotation Xrotation Yrotation
                                    JOINT RightFinger22
                                    {
                                        OFFSET  -2.788160   0.000000   0.000000
                                        CHANNELS 3 Zrotation Xrotation Yrotation
                                        End Site
                                        {
                                            OFFSET  -2.727660   0.000000   0.000000
                                        }
                                    }
                                }
                            }
                            JOINT RightFinger3
                            {
                                OFFSET  -7.899780   0.000000  -1.078090
                                CHANNELS 3 Zrotation Xrotation Yrotation
                                JOINT RightFinger31
                                {
                                    OFFSET  -4.646930   0.000000   0.000000
                                    CHANNELS 3 Zrotation Xrotation Yrotation
                                    JOINT RightFinger32
                                    {
                                        OFFSET  -2.323470   0.000000   0.000000
                                        CHANNELS 3 Zrotation Xrotation Yrotation
                                        End Site
                                        {
                                            OFFSET  -2.273050   0.000000   0.000000
                                        }
                                    }
                                }
                            }
                            JOINT RightFinger4
                            {
                                OFFSET  -7.435090   0.000000  -3.252850
                                CHANNELS 3 Zrotation Xrotation Yrotation
                                JOINT RightFinger41
                                {
                                    OFFSET  -3.717550   0.000000   0.000000
                                    CHANNELS 3 Zrotation Xrotation Yrotation
                                    JOINT RightFinger42
                                    {
                                        OFFSET  -1.858760   0.000000   0.000000
                                        CHANNELS 3 Zrotation Xrotation Yrotation
                                        End Site
                                        {
                                            OFFSET  -1.818440   0.000000   0.000000
                                        }
                                    }
                                }
                            }
                        }
                    }
                }
            }
        }
    }
    JOINT LeftHip
    {
        OFFSET   9.783010   0.000000   0.000000
        CHANNELS 3 Zrotation Xrotation Yrotation
        JOINT LeftKnee
        {
            OFFSET   0.000073 -41.789100   0.001749
            CHANNELS 3 Zrotation Xrotation Yrotation
            JOINT LeftAnkle
            {
                OFFSET   0.000111 -41.133200  -0.000179
                CHANNELS 3 Zrotation Xrotation Yrotation
                JOINT LeftToe
                {
                    OFFSET   0.000000  -6.358960  14.674500
                    CHANNELS 3 Zrotation Xrotation Yrotation
                    End Site
                    {
                        OFFSET   0.000000   0.000000   3.913200
                    }
                }
            }
        }
    }
    JOINT RightHip
    {
        OFFSET  -9.783010   0.000000   0.000000
        CHANNELS 3 Zrotation Xrotation Yrotation
        JOINT RightKnee
        {
            OFFSET   0.000424 -41.789200   0.005205
            CHANNELS 3 Zrotation Xrotation Yrotation
            JOINT RightAnkle
            {
                OFFSET   0.000000 -41.133200  -0.000155
                CHANNELS 3 Zrotation Xrotation Yrotation
                JOINT RightToe
                {
                    OFFSET   0.000000  -6.358960  14.674500
                    CHANNELS 3 Zrotation Xrotation Yrotation
                    End Site
                    {
                        OFFSET   0.000000   0.000000   3.913200
                    }
                }
            }
        }
    }
}
MOTION
Frames: 5
Frame Time:   0.016667
  1.230140  89.594600   0.031594  -2.929300  -8.116370  -0.790018   0.463675   5.835130  -0.203054   0.955763  11.668400  -0.457448  -0.044753  -0.868647   0.000269  -0.081770  -1.761260   4.725640  -7.178030  -1.828760  -0.016351 -69.546100   9.274070   1.150010  -0.926762  -3.471230 -18.939000  11.534500  -4.418720  -0.567085  43.234200  33.114400 -50.725900 -26.681000  -0.010078  -0.002857  -8.340520   0.000563  -0.007860 -45.012600  11.482000 -11.247600 -37.757200   0.000000  -0.000248 -27.678600  -0.000113  -0.000156 -35.252400   4.699610  -6.601320 -53.286000  -0.003132   0.003015 -35.488500   0.007460  -0.001813 -40.168900   2.734860  -3.235090 -54.342000  -0.001242   0.002034 -37.355300   0.002082   0.004896 -53.599300  -5.991340   4.400620 -80.744500   0.002603  -0.003525 -53.775800   0.002937   0.000924  11.593000  -1.181480   6.463850  69.820200   2.527760  -5.888740  -1.319440  -6.696270  13.857100 -15.380700  -0.836151   4.258780 -47.903000  37.633200  77.480300   6.591460   0.000659   0.000000  -1.704270   0.010647   0.001395  45.829700  11.457100  10.927400  38.397100  -0.002446  -0.005640  28.299300  -0.003049   0.005062  39.902900   3.222670   3.846000  54.338000   0.001064   0.000667  37.283800  -0.001989   0.003108  42.228800   1.617470   1.781170  54.421500   0.000830   0.004442  37.938600  -0.013076   0.002517  53.487800  -5.944660  -4.394040  80.574800  -0.008198   0.009946  53.662800  -0.006499   0.006223   2.892560  10.048800  -0.658912   0.635845   0.002490  11.857800  -1.459130  -2.448540  -1.138960   0.000000   0.000000   0.000000   3.397690   8.609840   0.041398  -0.608598   2.692280 -17.633200   0.152790  -3.827350   3.473680   0.000000   0.000000   0.000000
  1.201570  89.594500   0.026469  -2.927040  -8.147840  -0.772246   0.465876   5.849970  -0.205912   0.960595  11.698000  -0.463583  -0.044854  -0.862024   0.000270  -0.082149  -1.747790   4.736760  -7.189220  -1.840970  -0.026916 -69.543900   9.285780   1.135440  -0.920364  -3.484140 -18.908100  11.534700  -4.411930  -0.578729  43.225800  33.110400 -50.750700 -26.692500  -0.010078  -0.002850  -8.346280   0.000568  -0.007849 -44.994800  11.481700 -11.254800 -37.743100   0.000000  -0.000241 -27.665000  -0.000117  -0.000137 -35.248400   4.694690  -6.601530 -53.279500  -0.003140   0.003024 -35.484200   0.007449  -0.001815 -40.097600   2.738820  -3.248070 -54.338200  -0.001253   0.002048 -37.333700   0.002061   0.004890 -53.573100  -5.980290   4.396720 -80.704300   0.002601  -0.003515 -53.749000   0.002932   0.000903  11.614300  -1.218540   6.481380  69.806900   2.545650  -5.914730  -1.330790  -6.723310  13.842600 -15.387400  -0.844036   4.262780 -47.894400  37.628400  77.481900   6.575720   0.000522  -0.000000  -1.712140   0.010624   0.001413  45.840200  11.457000  10.920700  38.404800  -0.002447  -0.005652  28.306800  -0.003053   0.005065  39.952100   3.217660   3.834010  54.338300   0.001088   0.000678  37.298800  -0.001966   0.003108  42.257400   1.614710   1.776120  54.421700   0.000851   0.004464  37.946700  -0.013091   0.002527  53.511000  -5.954350  -4.394680  80.610000  -0.008148   0.009945  53.686300  -0.006508   0.006193   2.894980  10.075500  -0.675371   0.638555   0.001796  11.857200  -1.462370  -2.435890  -1.139760   0.000000   0.000000   0.000000   3.462190   8.619940   0.074885  -0.654997   2.740340 -17.689400   0.146583  -3.861450   3.469170  -0.000000   0.000000  -0.000000
  1.154930  89.594500   0.017166  -2.922890  -8.200910  -0.739797   0.469778   5.875480  -0.212171   0.969278  11.749000  -0.476857  -0.045022  -0.852559   0.000273  -0.082672  -1.728610   4.754000  -7.213370  -1.869140  -0.046856 -69.537800   9.297570   1.096610  -0.902641  -3.503990 -18.842200  11.534700  -4.364450  -0.596638  43.218300  33.111000 -50.791600 -26.708100  -0.010080  -0.002830  -8.354060   0.000572  -0.007829 -44.964500  11.481100 -11.267000 -37.719200   0.000000  -0.000220 -27.641900  -0.000126  -0.000099 -35.232600   4.689760  -6.603270 -53.254900  -0.003161   0.003046 -35.467800   0.007423  -0.001816 -39.990000   2.744810  -3.267610 -54.332400  -0.001282   0.002085 -37.301100   0.002012   0.004876 -53.530900  -5.962510   4.390470 -80.639500   0.002596  -0.003493 -53.705900   0.002918   0.000852  11.653500  -1.287560   6.516120  69.778700   2.586180  -5.952910  -1.358200  -6.764420  13.816300 -15.393800  -0.856660   4.266780 -47.833700  37.616700  77.486600   6.549670   0.000268  -0.000000  -1.725160   0.010575   0.001445  45.850600  11.457000  10.914100  38.412500  -0.002448  -0.005683  28.314400  -0.003061   0.005074  40.002500   3.204000   3.810710  54.338500   0.001137   0.000702  37.313700  -0.001916   0.003108  42.286900   1.597630   1.756300  54.421900   0.000895   0.004524  37.954800  -0.013129   0.002551  53.534200  -5.964050  -4.395310  80.645300  -0.008037   0.009942  53.709800  -0.006530   0.006128   2.898550  10.106400  -0.699959   0.647279   0.001102  11.854100  -1.469980  -2.423240  -1.144750  -0.000000   0.000000  -0.000000   3.566220   8.639520   0.108376  -0.729596   2.814770 -17.768700   0.136072  -3.914030   3.457480  -0.000000   0.000000   0.000000
  1.119310  89.594400   0.007844  -2.918710  -8.243350  -0.707545   0.473577   5.896520  -0.220164   0.977934  11.791000  -0.493574  -0.045182  -0.847818   0.000273  -0.082938  -1.719210   4.764080  -7.247070  -1.905260  -0.073785 -69.534700   9.263980   1.041660  -0.876122  -3.516010 -18.761300  11.515400  -4.258490  -0.608337  43.224500  33.123400 -50.816000 -26.711300  -0.010086  -0.002797  -8.355630   0.000571  -0.007812 -44.940600  11.480600 -11.276500 -37.700300   0.000000  -0.000187 -27.623700  -0.000137  -0.000058 -35.199300   4.692320  -6.614260 -53.205800  -0.003195   0.003078 -35.435100   0.007386  -0.001816 -39.937100   2.747740  -3.276960 -54.329800  -0.001328   0.002144 -37.285400   0.001941   0.004857 -53.502100  -5.950420   4.386280 -80.595400   0.002586  -0.003461 -53.676500   0.002897   0.000776  11.696000  -1.361480   6.557490  69.743800   2.634690  -5.975530  -1.400090  -6.793340  13.796300 -15.329200  -0.867763   4.236330 -47.722000  37.609400  77.526100   6.538410  -0.000065   0.000055  -1.730800   0.010513   0.001472  45.817100  11.458100  10.927200  38.386300  -0.002457  -0.005727  28.288700  -0.003073   0.005090  40.000500   3.181250   3.780920  54.337800   0.001202   0.000736  37.312300  -0.001846   0.003104  42.259400   1.560260   1.718040  54.421400   0.000956   0.004618  37.947300  -0.013185   0.002587  53.527900  -5.961380  -4.393880  80.635600  -0.007882   0.009937  53.703300  -0.006567   0.006037   2.900340  10.109200  -0.713695   0.655600   0.050667  11.847000  -1.481890  -2.435930  -1.156660   0.000000   0.000000   0.000000   3.640940   8.659220   0.107731  -0.785103   2.863140 -17.802200   0.126349  -3.947590   3.436720   0.000000   0.000000   0.000000
  1.085560  89.594300  -0.001835  -2.914200  -8.289160  -0.672606   0.477274   5.920500  -0.230266   0.986575  11.838800  -0.514568  -0.045277  -0.845918   0.000275  -0.082866  -1.715510   4.774670  -7.281800  -1.956500  -0.091343 -69.544500   9.230470   0.955804  -0.836226  -3.526620 -18.658100  11.484200  -4.093120  -0.617200  43.240900  33.151800 -50.855400 -26.713500  -0.010100  -0.002748  -8.356740   0.000569  -0.007788 -44.913500  11.480100 -11.287400 -37.678900   0.000000  -0.000146 -27.603000  -0.000145   0.000000 -35.155000   4.700990  -6.637820 -53.141800  -0.003241   0.003120 -35.392500   0.007338  -0.001816 -39.877700   2.751010  -3.287530 -54.326800  -0.001385   0.002219 -37.267600   0.001854   0.004832 -53.471200  -5.937450   4.381760 -80.548000   0.002573  -0.003421 -53.645000   0.002872   0.000683  11.736700  -1.437160   6.601630  69.702100   2.708800  -5.986210  -1.447790  -6.808880  13.763800 -15.133700  -0.874188   4.151330 -47.581000  37.605300  77.597800   6.509050  -0.000281   0.000109  -1.745480   0.010443   0.001509  45.696800  11.461400  10.974800  38.292200  -0.002471  -0.005779  28.197000  -0.003087   0.005110  39.967200   3.153440   3.755510  54.333000   0.001268   0.000773  37.302300  -0.001771   0.003097  42.116800   1.502980   1.663030  54.417700   0.001021   0.004738  37.907100  -0.013249   0.002634  53.483700  -5.942760  -4.384000  80.567300  -0.007717   0.009930  53.657800  -0.006614   0.005939   2.901870  10.112000  -0.723980   0.661554   0.109446  11.837200  -1.494200  -2.448620  -1.172560   0.000000   0.000000  -0.000000   3.704850   8.685680   0.103182  -0.835083   2.903490 -17.818300   0.118357  -3.975130   3.416300  -0.000000   0.000000   0.000000
